<svg class="svg-icon" style="width: 1em; height: 1em;vertical-align: middle;fill: currentColor;overflow: hidden;" viewBox="0 0 1024 1024" version="1.1" xmlns="http://www.w3.org/2000/svg"><path d="M512 64C264.6 64 64 264.6 64 512s200.6 448 448 448 448-200.6 448-448S759.4 64 512 64z m0 840c-216.1 0-392-175.9-392-392s175.9-392 392-392 392 175.9 392 392-175.9 392-392 392z"  /><path d="M706.2 484h-168V260c0-15.5-12.5-28-28-28s-28 12.5-28 28v252c0 15.5 12.5 28 28 28h196c15.5 0 28-12.5 28-28s-12.5-28-28-28z"  /></svg>